<svg xmlns="http://www.w3.org/2000/svg" viewBox="0 0 1920 1080">
  <g transform="
          rotate(0 960 540) 
          translate(-0 -0)
          scale(1)
        ">
    <rect width="1920" height="1080" fill="#ffffff"></rect>
    <g transform="translate(0, 0)">
      <path fill="rgb(171, 157, 246)" fill-opacity="1"
        d="M0,88.236L40,87.519C80,86.802,160,85.368,240,85.145C320,84.923,400,85.912,480,86.024C560,86.135,640,85.368,720,75.796C800,66.223,880,47.846,960,46.294C1040,44.742,1120,60.015,1200,55.334C1280,50.653,1360,26.017,1440,24.62C1520,23.223,1600,45.064,1680,50.505C1760,55.945,1840,44.984,1880,39.504L1920,34.023L1920,1080L1880,1080C1840,1080,1760,1080,1680,1080C1600,1080,1520,1080,1440,1080C1360,1080,1280,1080,1200,1080C1120,1080,1040,1080,960,1080C880,1080,800,1080,720,1080C640,1080,560,1080,480,1080C400,1080,320,1080,240,1080C160,1080,80,1080,40,1080L0,1080Z">
      </path>
    </g>
    <g transform="translate(0, 90)">
      <path fill="rgb(158, 143, 236)" fill-opacity="1"
        d="M0,6.034L40,15.515C80,24.996,160,43.957,240,47.376C320,50.795,400,38.672,480,32.604C560,26.535,640,26.523,720,35.319C800,44.115,880,61.719,960,71.174C1040,80.629,1120,81.935,1200,71.169C1280,60.403,1360,37.566,1440,28.156C1520,18.746,1600,22.763,1680,31.568C1760,40.373,1840,53.966,1880,60.763L1920,67.56L1920,990L1880,990C1840,990,1760,990,1680,990C1600,990,1520,990,1440,990C1360,990,1280,990,1200,990C1120,990,1040,990,960,990C880,990,800,990,720,990C640,990,560,990,480,990C400,990,320,990,240,990C160,990,80,990,40,990L0,990Z">
      </path>
    </g>
    <g transform="translate(0, 180)">
      <path fill="rgb(145, 128, 227)" fill-opacity="1"
        d="M0,84.476L40,77.948C80,71.42,160,58.363,240,45.078C320,31.793,400,18.281,480,10.841C560,3.402,640,2.035,720,10.27C800,18.504,880,36.339,960,41.946C1040,47.552,1120,40.928,1200,34.044C1280,27.16,1360,20.016,1440,18.064C1520,16.112,1600,19.353,1680,21.652C1760,23.951,1840,25.308,1880,25.986L1920,26.665L1920,900L1880,900C1840,900,1760,900,1680,900C1600,900,1520,900,1440,900C1360,900,1280,900,1200,900C1120,900,1040,900,960,900C880,900,800,900,720,900C640,900,560,900,480,900C400,900,320,900,240,900C160,900,80,900,40,900L0,900Z">
      </path>
    </g>
    <g transform="translate(0, 270)">
      <path fill="rgb(131, 114, 218)" fill-opacity="1"
        d="M0,70.331L40,72.965C80,75.6,160,80.869,240,84.03C320,87.19,400,88.242,480,82.156C560,76.07,640,62.845,720,52.324C800,41.802,880,33.983,960,27.159C1040,20.335,1120,14.506,1200,23.118C1280,31.731,1360,54.786,1440,68.042C1520,81.297,1600,84.753,1680,86.604C1760,88.454,1840,88.699,1880,88.822L1920,88.945L1920,810L1880,810C1840,810,1760,810,1680,810C1600,810,1520,810,1440,810C1360,810,1280,810,1200,810C1120,810,1040,810,960,810C880,810,800,810,720,810C640,810,560,810,480,810C400,810,320,810,240,810C160,810,80,810,40,810L0,810Z">
      </path>
    </g>
    <g transform="translate(0, 360)">
      <path fill="rgb(118, 100, 208)" fill-opacity="1"
        d="M0,57.435L40,56.128C80,54.82,160,52.206,240,46.865C320,41.523,400,33.454,480,39.827C560,46.201,640,67.016,720,75.697C800,84.377,880,80.923,960,79.941C1040,78.959,1120,80.449,1200,78.72C1280,76.991,1360,72.042,1440,59.697C1520,47.352,1600,27.61,1680,29.975C1760,32.339,1840,56.808,1880,69.043L1920,81.278L1920,720L1880,720C1840,720,1760,720,1680,720C1600,720,1520,720,1440,720C1360,720,1280,720,1200,720C1120,720,1040,720,960,720C880,720,800,720,720,720C640,720,560,720,480,720C400,720,320,720,240,720C160,720,80,720,40,720L0,720Z">
      </path>
    </g>
    <g transform="translate(0, 450)">
      <path fill="rgb(105, 86, 199)" fill-opacity="1"
        d="M0,41.226L40,36.549C80,31.872,160,22.517,240,22.324C320,22.132,400,31.1,480,43.598C560,56.096,640,72.124,720,73.085C800,74.046,880,59.941,960,51.63C1040,43.318,1120,40.8,1200,34.108C1280,27.415,1360,16.548,1440,10.986C1520,5.424,1600,5.167,1680,10.059C1760,14.952,1840,24.995,1880,30.016L1920,35.038L1920,630L1880,630C1840,630,1760,630,1680,630C1600,630,1520,630,1440,630C1360,630,1280,630,1200,630C1120,630,1040,630,960,630C880,630,800,630,720,630C640,630,560,630,480,630C400,630,320,630,240,630C160,630,80,630,40,630L0,630Z">
      </path>
    </g>
    <g transform="translate(0, 540)">
      <path fill="rgb(92, 71, 190)" fill-opacity="1"
        d="M0,86.575L40,83.811C80,81.046,160,75.517,240,63.138C320,50.758,400,31.527,480,33.894C560,36.26,640,60.222,720,63.966C800,67.709,880,51.232,960,47.371C1040,43.509,1120,52.263,1200,52.802C1280,53.341,1360,45.666,1440,46.568C1520,47.469,1600,56.947,1680,61.557C1760,66.168,1840,65.911,1880,65.782L1920,65.654L1920,540L1880,540C1840,540,1760,540,1680,540C1600,540,1520,540,1440,540C1360,540,1280,540,1200,540C1120,540,1040,540,960,540C880,540,800,540,720,540C640,540,560,540,480,540C400,540,320,540,240,540C160,540,80,540,40,540L0,540Z">
      </path>
    </g>
    <g transform="translate(0, 630)">
      <path fill="rgb(79, 57, 180)" fill-opacity="1"
        d="M0,39.893L40,41.709C80,43.524,160,47.156,240,48.93C320,50.705,400,50.624,480,49.741C560,48.858,640,47.173,720,45.694C800,44.216,880,42.943,960,36.89C1040,30.836,1120,20.001,1200,13.531C1280,7.061,1360,4.956,1440,7.962C1520,10.968,1600,19.086,1680,24.189C1760,29.292,1840,31.38,1880,32.425L1920,33.469L1920,450L1880,450C1840,450,1760,450,1680,450C1600,450,1520,450,1440,450C1360,450,1280,450,1200,450C1120,450,1040,450,960,450C880,450,800,450,720,450C640,450,560,450,480,450C400,450,320,450,240,450C160,450,80,450,40,450L0,450Z">
      </path>
    </g>
    <g transform="translate(0, 720)">
      <path fill="rgb(66, 43, 171)" fill-opacity="1"
        d="M0,30.043L40,33.282C80,36.521,160,42.998,240,47.666C320,52.334,400,55.191,480,59.665C560,64.139,640,70.229,720,69.189C800,68.149,880,59.979,960,51.531C1040,43.083,1120,34.357,1200,34.575C1280,34.792,1360,43.954,1440,42.498C1520,41.043,1600,28.972,1680,32.248C1760,35.524,1840,54.148,1880,63.46L1920,72.772L1920,360L1880,360C1840,360,1760,360,1680,360C1600,360,1520,360,1440,360C1360,360,1280,360,1200,360C1120,360,1040,360,960,360C880,360,800,360,720,360C640,360,560,360,480,360C400,360,320,360,240,360C160,360,80,360,40,360L0,360Z">
      </path>
    </g>
    <g transform="translate(0, 810)">
      <path fill="rgb(52, 29, 162)" fill-opacity="1"
        d="M0,38.834L40,47.011C80,55.187,160,71.54,240,78.433C320,85.325,400,82.756,480,75.545C560,68.334,640,56.481,720,55.754C800,55.026,880,65.425,960,64.571C1040,63.717,1120,51.609,1200,46.631C1280,41.652,1360,43.803,1440,39.093C1520,34.384,1600,22.815,1680,24.697C1760,26.579,1840,41.913,1880,49.58L1920,57.246L1920,270L1880,270C1840,270,1760,270,1680,270C1600,270,1520,270,1440,270C1360,270,1280,270,1200,270C1120,270,1040,270,960,270C880,270,800,270,720,270C640,270,560,270,480,270C400,270,320,270,240,270C160,270,80,270,40,270L0,270Z">
      </path>
    </g>
    <g transform="translate(0, 900)">
      <path fill="rgb(39, 14, 152)" fill-opacity="1"
        d="M0,0.12L40,6.721C80,13.322,160,26.523,240,38.731C320,50.938,400,62.152,480,55.703C560,49.254,640,25.142,720,23.803C800,22.464,880,43.899,960,47.286C1040,50.674,1120,36.014,1200,32.196C1280,28.377,1360,35.399,1440,37.486C1520,39.572,1600,36.722,1680,42.123C1760,47.523,1840,61.173,1880,67.998L1920,74.823L1920,180L1880,180C1840,180,1760,180,1680,180C1600,180,1520,180,1440,180C1360,180,1280,180,1200,180C1120,180,1040,180,960,180C880,180,800,180,720,180C640,180,560,180,480,180C400,180,320,180,240,180C160,180,80,180,40,180L0,180Z">
      </path>
    </g>
    <g transform="translate(0, 990)">
      <path fill="rgb(26, 0, 143)" fill-opacity="1"
        d="M0,7.169L40,17.054C80,26.939,160,46.71,240,53.171C320,59.632,400,52.784,480,55.251C560,57.719,640,69.502,720,69.665C800,69.829,880,58.372,960,45.485C1040,32.598,1120,18.28,1200,17.163C1280,16.045,1360,28.128,1440,40.598C1520,53.068,1600,65.926,1680,62.288C1760,58.65,1840,38.516,1880,28.449L1920,18.382L1920,90L1880,90C1840,90,1760,90,1680,90C1600,90,1520,90,1440,90C1360,90,1280,90,1200,90C1120,90,1040,90,960,90C880,90,800,90,720,90C640,90,560,90,480,90C400,90,320,90,240,90C160,90,80,90,40,90L0,90Z">
      </path>
    </g>
  </g>
</svg>