<svg xmlns="http://www.w3.org/2000/svg" viewBox="0 0 1920 1080">
  <g transform="
          rotate(0 960 540) 
          translate(-0 -0)
          scale(1)
        ">
    <rect width="1920" height="1080" fill="rgb(131, 116, 196)"></rect>
    <g transform="translate(0, 0)">
      <path fill="rgb(120, 106, 181)" fill-opacity="1"
        d="M0,88.236L45.714,87.519C91.429,86.802,182.857,85.368,274.286,85.145C365.714,84.923,457.143,85.912,548.571,86.024C640,86.135,731.429,85.368,822.857,75.796C914.286,66.223,1005.714,47.846,1097.143,46.294C1188.571,44.742,1280,60.015,1371.429,55.334C1462.857,50.653,1554.286,26.017,1645.714,24.62C1737.143,23.223,1828.571,45.064,1874.286,55.985L1920,66.906L1920,1080L1874.286,1080C1828.571,1080,1737.143,1080,1645.714,1080C1554.286,1080,1462.857,1080,1371.429,1080C1280,1080,1188.571,1080,1097.143,1080C1005.714,1080,914.286,1080,822.857,1080C731.429,1080,640,1080,548.571,1080C457.143,1080,365.714,1080,274.286,1080C182.857,1080,91.429,1080,45.714,1080L0,1080Z">
      </path>
    </g>
    <g transform="translate(0, 90)">
      <path fill="rgb(110, 97, 165)" fill-opacity="1"
        d="M0,34.023L45.714,29.358C91.429,24.694,182.857,15.364,274.286,20.18C365.714,24.996,457.143,43.957,548.571,47.376C640,50.795,731.429,38.672,822.857,32.604C914.286,26.535,1005.714,26.523,1097.143,35.319C1188.571,44.115,1280,61.719,1371.429,71.174C1462.857,80.629,1554.286,81.935,1645.714,71.169C1737.143,60.403,1828.571,37.566,1874.286,26.147L1920,14.729L1920,990L1874.286,990C1828.571,990,1737.143,990,1645.714,990C1554.286,990,1462.857,990,1371.429,990C1280,990,1188.571,990,1097.143,990C1005.714,990,914.286,990,822.857,990C731.429,990,640,990,548.571,990C457.143,990,365.714,990,274.286,990C182.857,990,91.429,990,45.714,990L0,990Z">
      </path>
    </g>
    <g transform="translate(0, 180)">
      <path fill="rgb(99, 87, 150)" fill-opacity="1"
        d="M0,26.78L45.714,33.577C91.429,40.373,182.857,53.966,274.286,63.582C365.714,73.199,457.143,78.838,548.571,75.129C640,71.42,731.429,58.363,822.857,45.078C914.286,31.793,1005.714,18.281,1097.143,10.841C1188.571,3.402,1280,2.035,1371.429,10.27C1462.857,18.504,1554.286,36.339,1645.714,41.946C1737.143,47.552,1828.571,40.928,1874.286,37.617L1920,34.305L1920,900L1874.286,900C1828.571,900,1737.143,900,1645.714,900C1554.286,900,1462.857,900,1371.429,900C1280,900,1188.571,900,1097.143,900C1005.714,900,914.286,900,822.857,900C731.429,900,640,900,548.571,900C457.143,900,365.714,900,274.286,900C182.857,900,91.429,900,45.714,900L0,900Z">
      </path>
    </g>
    <g transform="translate(0, 270)">
      <path fill="rgb(88, 77, 134)" fill-opacity="1"
        d="M0,12.871L45.714,14.491C91.429,16.112,182.857,19.353,274.286,21.652C365.714,23.951,457.143,25.308,548.571,33.264C640,41.22,731.429,55.775,822.857,65.688C914.286,75.6,1005.714,80.869,1097.143,84.03C1188.571,87.19,1280,88.242,1371.429,82.156C1462.857,76.07,1554.286,62.845,1645.714,52.324C1737.143,41.802,1828.571,33.983,1874.286,30.074L1920,26.165L1920,810L1874.286,810C1828.571,810,1737.143,810,1645.714,810C1554.286,810,1462.857,810,1371.429,810C1280,810,1188.571,810,1097.143,810C1005.714,810,914.286,810,822.857,810C731.429,810,640,810,548.571,810C457.143,810,365.714,810,274.286,810C182.857,810,91.429,810,45.714,810L0,810Z">
      </path>
    </g>
    <g transform="translate(0, 360)">
      <path fill="rgb(77, 68, 118)" fill-opacity="1"
        d="M0,8.676L45.714,20.204C91.429,31.731,182.857,54.786,274.286,68.042C365.714,81.297,457.143,84.753,548.571,86.604C640,88.454,731.429,88.699,822.857,83.57C914.286,78.441,1005.714,67.938,1097.143,61.379C1188.571,54.82,1280,52.206,1371.429,46.865C1462.857,41.523,1554.286,33.454,1645.714,39.827C1737.143,46.201,1828.571,67.016,1874.286,77.424L1920,87.832L1920,720L1874.286,720C1828.571,720,1737.143,720,1645.714,720C1554.286,720,1462.857,720,1371.429,720C1280,720,1188.571,720,1097.143,720C1005.714,720,914.286,720,822.857,720C731.429,720,640,720,548.571,720C457.143,720,365.714,720,274.286,720C182.857,720,91.429,720,45.714,720L0,720Z">
      </path>
    </g>
    <g transform="translate(0, 450)">
      <path fill="rgb(67, 58, 103)" fill-opacity="1"
        d="M0,77.468L45.714,78.214C91.429,78.959,182.857,80.449,274.286,78.72C365.714,76.991,457.143,72.042,548.571,59.697C640,47.352,731.429,27.61,822.857,29.975C914.286,32.339,1005.714,56.808,1097.143,62.368C1188.571,67.927,1280,54.577,1371.429,43.224C1462.857,31.872,1554.286,22.517,1645.714,22.324C1737.143,22.132,1828.571,31.1,1874.286,35.585L1920,40.069L1920,630L1874.286,630C1828.571,630,1737.143,630,1645.714,630C1554.286,630,1462.857,630,1371.429,630C1280,630,1188.571,630,1097.143,630C1005.714,630,914.286,630,822.857,630C731.429,630,640,630,548.571,630C457.143,630,365.714,630,274.286,630C182.857,630,91.429,630,45.714,630L0,630Z">
      </path>
    </g>
    <g transform="translate(0, 540)">
      <path fill="rgb(56, 48, 88)" fill-opacity="1"
        d="M0,88.151L45.714,81.098C91.429,74.046,182.857,59.941,274.286,51.63C365.714,43.318,457.143,40.8,548.571,34.108C640,27.415,731.429,16.548,822.857,10.986C914.286,5.424,1005.714,5.167,1097.143,10.059C1188.571,14.952,1280,24.995,1371.429,38.606C1462.857,52.217,1554.286,69.396,1645.714,75.221C1737.143,81.046,1828.571,75.517,1874.286,72.753L1920,69.988L1920,540L1874.286,540C1828.571,540,1737.143,540,1645.714,540C1554.286,540,1462.857,540,1371.429,540C1280,540,1188.571,540,1097.143,540C1005.714,540,914.286,540,822.857,540C731.429,540,640,540,548.571,540C457.143,540,365.714,540,274.286,540C182.857,540,91.429,540,45.714,540L0,540Z">
      </path>
    </g>
    <g transform="translate(0, 630)">
      <path fill="rgb(45, 39, 72)" fill-opacity="1"
        d="M0,12.297L45.714,24.278C91.429,36.26,182.857,60.222,274.286,63.966C365.714,67.709,457.143,51.232,548.571,47.371C640,43.509,731.429,52.263,822.857,52.802C914.286,53.341,1005.714,45.666,1097.143,46.568C1188.571,47.469,1280,56.947,1371.429,61.557C1462.857,66.168,1554.286,65.911,1645.714,61.489C1737.143,57.067,1828.571,48.48,1874.286,44.187L1920,39.893L1920,450L1874.286,450C1828.571,450,1737.143,450,1645.714,450C1554.286,450,1462.857,450,1371.429,450C1280,450,1188.571,450,1097.143,450C1005.714,450,914.286,450,822.857,450C731.429,450,640,450,548.571,450C457.143,450,365.714,450,274.286,450C182.857,450,91.429,450,45.714,450L0,450Z">
      </path>
    </g>
    <g transform="translate(0, 720)">
      <path fill="rgb(34, 29, 57)" fill-opacity="1"
        d="M0,50.787L45.714,50.746C91.429,50.705,182.857,50.624,274.286,49.741C365.714,48.858,457.143,47.173,548.571,45.694C640,44.216,731.429,42.943,822.857,36.89C914.286,30.836,1005.714,20.001,1097.143,13.531C1188.571,7.061,1280,4.956,1371.429,7.962C1462.857,10.968,1554.286,19.086,1645.714,24.189C1737.143,29.292,1828.571,31.38,1874.286,32.425L1920,33.469L1920,360L1874.286,360C1828.571,360,1737.143,360,1645.714,360C1554.286,360,1462.857,360,1371.429,360C1280,360,1188.571,360,1097.143,360C1005.714,360,914.286,360,822.857,360C731.429,360,640,360,548.571,360C457.143,360,365.714,360,274.286,360C182.857,360,91.429,360,45.714,360L0,360Z">
      </path>
    </g>
    <g transform="translate(0, 810)">
      <path fill="rgb(24, 19, 41)" fill-opacity="1"
        d="M0,30.043L45.714,33.282C91.429,36.521,182.857,42.998,274.286,47.666C365.714,52.334,457.143,55.191,548.571,59.665C640,64.139,731.429,70.229,822.857,69.189C914.286,68.149,1005.714,59.979,1097.143,51.531C1188.571,43.083,1280,34.357,1371.429,34.575C1462.857,34.792,1554.286,43.954,1645.714,42.498C1737.143,41.043,1828.571,28.972,1874.286,22.936L1920,16.9L1920,270L1874.286,270C1828.571,270,1737.143,270,1645.714,270C1554.286,270,1462.857,270,1371.429,270C1280,270,1188.571,270,1097.143,270C1005.714,270,914.286,270,822.857,270C731.429,270,640,270,548.571,270C457.143,270,365.714,270,274.286,270C182.857,270,91.429,270,45.714,270L0,270Z">
      </path>
    </g>
    <g transform="translate(0, 900)">
      <path fill="rgb(13, 10, 25)" fill-opacity="1"
        d="M0,72.772L45.714,67.116C91.429,61.459,182.857,50.147,274.286,52.667C365.714,55.187,457.143,71.54,548.571,78.433C640,85.325,731.429,82.756,822.857,75.545C914.286,68.334,1005.714,56.481,1097.143,55.754C1188.571,55.026,1280,65.425,1371.429,64.571C1462.857,63.717,1554.286,51.609,1645.714,46.631C1737.143,41.652,1828.571,43.803,1874.286,44.878L1920,45.953L1920,180L1874.286,180C1828.571,180,1737.143,180,1645.714,180C1554.286,180,1462.857,180,1371.429,180C1280,180,1188.571,180,1097.143,180C1005.714,180,914.286,180,822.857,180C731.429,180,640,180,548.571,180C457.143,180,365.714,180,274.286,180C182.857,180,91.429,180,45.714,180L0,180Z">
      </path>
    </g>
    <g transform="translate(0, 990)">
      <path fill="rgb(2, 0, 10)" fill-opacity="1"
        d="M0,11.246L45.714,18.912C91.429,26.579,182.857,41.913,274.286,40.059C365.714,38.204,457.143,19.162,548.571,16.242C640,13.322,731.429,26.523,822.857,38.731C914.286,50.938,1005.714,62.152,1097.143,55.703C1188.571,49.254,1280,25.142,1371.429,23.803C1462.857,22.464,1554.286,43.899,1645.714,47.286C1737.143,50.674,1828.571,36.014,1874.286,28.685L1920,21.355L1920,90L1874.286,90C1828.571,90,1737.143,90,1645.714,90C1554.286,90,1462.857,90,1371.429,90C1280,90,1188.571,90,1097.143,90C1005.714,90,914.286,90,822.857,90C731.429,90,640,90,548.571,90C457.143,90,365.714,90,274.286,90C182.857,90,91.429,90,45.714,90L0,90Z">
      </path>
    </g>
  </g>
</svg>