<?xml version="1.0" standalone="no"?>
<!DOCTYPE svg PUBLIC "-//W3C//DTD SVG 20010904//EN"
 "http://www.w3.org/TR/2001/REC-SVG-20010904/DTD/svg10.dtd">
<svg version="1.0" xmlns="http://www.w3.org/2000/svg"
 width="154.000000pt" height="159.000000pt" viewBox="0 0 154.000000 159.000000"
 preserveAspectRatio="xMidYMid meet">

<g transform="translate(0.000000,159.000000) scale(0.100000,-0.100000)"
fill="#000000" stroke="none">
<path d="M566 1345 c-115 -41 -210 -76 -212 -78 -2 -2 27 -28 64 -59 38 -33
69 -52 73 -46 6 9 22 -51 49 -185 38 -191 281 -265 418 -127 42 41 68 93 76
150 17 109 29 148 47 153 17 5 19 -1 19 -49 0 -47 2 -54 20 -54 19 0 20 4 14
68 l-7 68 48 41 47 40 -219 76 c-120 43 -220 77 -223 76 -3 0 -99 -34 -214
-74z m504 -155 c0 -6 -104 -10 -291 -10 -191 0 -288 3 -284 10 8 14 575 14
575 0z m-56 -132 c-22 -131 -59 -193 -138 -229 -130 -59 -290 26 -311 164 -3
23 -8 54 -11 70 l-6 27 236 0 236 0 -6 -32z"/>
<path d="M316 772 c-3 -20 -6 -67 -6 -104 0 -58 -3 -68 -17 -68 -52 0 -113
-74 -113 -135 0 -40 50 -85 94 -85 l36 0 0 -53 0 -53 168 -2 c92 -1 194 -6
227 -11 33 -5 63 -7 67 -5 3 2 7 116 7 253 l1 249 -32 6 c-34 6 -257 31 -364
40 l-61 5 -7 -37z m27 -203 c29 -16 37 -28 37 -62 0 -72 -101 -126 -152 -80
-37 33 -10 114 45 138 40 18 43 18 70 4z"/>
<path d="M1170 803 c-69 -5 -311 -33 -347 -39 l-33 -6 0 -255 0 -255 26 6 c45
12 327 26 382 19 l52 -6 0 57 0 56 39 0 c81 0 118 64 82 144 -19 44 -41 61
-103 80 -16 5 -18 19 -18 106 0 89 -2 100 -17 98 -10 -1 -38 -3 -63 -5z m124
-237 c31 -13 66 -65 66 -98 0 -30 -31 -58 -63 -58 -97 0 -156 127 -74 160 30
12 33 12 71 -4z"/>
</g>
</svg>
