<?xml version="1.0" standalone="no"?>
<!DOCTYPE svg PUBLIC "-//W3C//DTD SVG 20010904//EN"
 "http://www.w3.org/TR/2001/REC-SVG-20010904/DTD/svg10.dtd">
<svg version="1.0" xmlns="http://www.w3.org/2000/svg"
 width="585.000000pt" height="177.000000pt" viewBox="0 0 585.000000 177.000000"
 preserveAspectRatio="xMidYMid meet">

<g transform="translate(0.000000,177.000000) scale(0.100000,-0.100000)"
fill="#000000" stroke="none">
<path d="M696 1345 c-115 -41 -210 -76 -212 -78 -2 -2 27 -28 64 -59 38 -33
69 -52 73 -46 6 9 22 -51 49 -185 38 -191 281 -265 418 -127 42 41 68 93 76
150 17 109 29 148 47 153 17 5 19 -1 19 -49 0 -47 2 -54 20 -54 19 0 20 4 14
68 l-7 68 48 41 47 40 -219 76 c-120 43 -220 77 -223 76 -3 0 -99 -34 -214
-74z m504 -155 c0 -6 -104 -10 -291 -10 -191 0 -288 3 -284 10 8 14 575 14
575 0z m-56 -132 c-22 -131 -59 -193 -138 -229 -130 -59 -290 26 -311 164 -3
23 -8 54 -11 70 l-6 27 236 0 236 0 -6 -32z" />
<path d="M1927 842 c-65 -191 -117 -353 -117 -359 0 -7 7 -13 15 -13 10 0 44
90 116 310 55 171 102 310 105 310 2 0 49 -139 104 -310 87 -267 104 -310 120
-310 11 0 20 2 20 4 0 6 -240 709 -243 712 -2 2 -56 -153 -120 -344z" />
<path d="M3277 842 c-65 -191 -117 -353 -117 -359 0 -7 7 -13 15 -13 10 0 44
90 116 310 55 171 102 310 105 310 2 0 49 -139 104 -310 87 -267 104 -310 120
-310 11 0 20 2 20 4 0 6 -240 709 -243 712 -1 2 -56 -153 -120 -344z" />
<path d="M4260 965 c0 -143 4 -225 10 -225 6 0 10 77 10 210 l0 210 110 0 c91
0 110 3 110 15 0 13 -20 15 -120 15 l-120 0 0 -225z" />
<path d="M4630 830 c0 -313 2 -360 15 -360 13 0 15 43 15 325 0 282 2 325 15
325 19 0 19 5 -2 41 -40 68 -43 48 -43 -331z" />
<path d="M4925 1025 l-89 -164 -23 40 c-12 22 -39 72 -59 110 -27 51 -40 67
-48 59 -11 -11 15 -68 100 -217 l31 -55 84 159 84 158 3 -322 c2 -278 4 -323
17 -323 13 0 15 48 15 360 0 295 -2 360 -13 360 -8 0 -54 -74 -102 -165z"/>
<path d="M5160 830 c0 -233 4 -360 10 -360 6 0 10 127 10 360 0 233 -4 360
-10 360 -6 0 -10 -127 -10 -360z" />
<path d="M5425 1175 c-90 -32 -137 -132 -138 -295 -1 -128 18 -199 68 -257 20
-23 51 -48 70 -54 30 -11 34 -17 37 -53 4 -57 28 -60 28 -3 0 40 3 46 27 52
101 25 162 167 150 348 -9 143 -65 243 -148 267 -42 12 -45 12 -94 -5z m121
-34 c20 -12 43 -42 60 -78 27 -55 29 -65 29 -188 0 -123 -2 -133 -29 -188 -17
-36 -40 -66 -60 -78 -49 -30 -56 -26 -56 37 0 73 -24 70 -28 -4 -3 -45 -6 -52
-24 -52 -30 0 -84 62 -105 122 -13 40 -18 82 -18 168 0 110 2 119 32 180 19
38 44 72 60 82 37 23 101 22 139 -1z" />
<path d="M2643 1166 c-88 -29 -153 -88 -204 -186 -30 -58 -33 -198 -6 -275 22
-65 81 -142 136 -179 54 -36 147 -61 155 -41 3 9 -8 15 -32 20 -92 17 -176 85
-223 180 -21 43 -24 64 -24 150 0 111 11 143 79 222 112 129 352 131 459 3 26
-31 47 -39 47 -18 0 18 -82 92 -125 113 -51 24 -201 31 -262 11z" />
<path d="M3760 826 l0 -356 59 0 c67 0 91 6 91 24 0 9 -17 11 -60 8 l-60 -4 0
332 0 333 62 -7 c156 -16 247 -119 256 -292 7 -134 -49 -272 -133 -326 -39
-26 -44 -38 -15 -38 25 0 90 64 124 122 80 137 69 347 -25 461 -54 65 -110 90
-211 95 l-88 4 0 -356z" />
<path d="M446 772 c-3 -20 -6 -67 -6 -104 0 -58 -3 -68 -17 -68 -52 0 -113
-74 -113 -135 0 -40 50 -85 94 -85 l36 0 0 -53 0 -53 168 -2 c92 -1 194 -6
227 -11 33 -5 63 -7 67 -5 3 2 7 116 7 253 l1 249 -32 6 c-34 6 -257 31 -364
40 l-61 5 -7 -37z m27 -203 c29 -16 37 -28 37 -62 0 -72 -101 -126 -152 -80
-37 33 -10 114 45 138 40 18 43 18 70 4z" />
<path d="M1300 803 c-69 -5 -311 -33 -347 -39 l-33 -6 0 -255 0 -255 26 6 c45
12 327 26 382 19 l52 -6 0 57 0 56 39 0 c81 0 118 64 82 144 -19 44 -41 61
-103 80 -16 5 -18 19 -18 106 0 89 -2 100 -17 98 -10 -1 -38 -3 -63 -5z m124
-237 c31 -13 66 -65 66 -98 0 -30 -31 -58 -63 -58 -97 0 -156 127 -74 160 30
12 33 12 71 -4z"/>
<path d="M4260 590 l0 -120 125 0 c158 0 168 8 13 22 l-113 3 -3 93 c-3 87
-1 94 8 109 30 8 164 43 0 45 l-30 0 0 -120z" />
<path d="M2003 653 c3 -10 16 -55 28 -100 14 -52 27 -83 36 -83 17 0 16 9 -11
110 -17 62 -28 86 -40 88 -13 3 -17 -1 -13 -15z"/>
<path d="M3353 653 c3 -10 16 -55 28 -100 14 -52 27 -83 36 -83 17 0 16 9 -11
110 -17 62 -28 86 -40 88 -13 3 -17 -1 -13 -15z" />
<path d="M2979 594 c-40 -42 -88 -68 -153 -85 -58 -14 -66 -43 -8 -33 103 18
237 113 205 145 -5 5 -23 -6 -44 -27z" />
</g>
</svg>
